<?xml version="1.0" encoding="utf-8"?>
<!-- Generator: Adobe Illustrator 23.0.1, SVG Export Plug-In . SVG Version: 6.00 Build 0)  -->
<svg version="1.1" id="Layer_1" xmlns="http://www.w3.org/2000/svg" xmlns:xlink="http://www.w3.org/1999/xlink" x="0px" y="0px"
	 viewBox="0 0 792 612" style="enable-background:new 0 0 792 612;" xml:space="preserve">
<style type="text/css">
	.st0{fill:#333333;}
	.st1{fill:#77ABD9;}
	.st2{fill:#5B5B5B;}
	.st3{fill:#006A93;}
	.st4{fill:none;}
	.st5{fill:#F1F4F3;stroke:#000000;stroke-miterlimit:10;}
	.st6{opacity:0.5;fill:#0D0D0D;enable-background:new    ;}
</style>
<polygon class="st0" points="791.9,-0.3 791.9,580.1 211.5,-0.3 "/>
<polygon class="st1" points="791.9,580.1 791.9,611.7 338.3,611.7 -0.1,277.1 -0.1,-0.3 211.5,-0.3 "/>
<polygon class="st2" points="338.3,611.7 283.5,611.7 -0.1,328.1 -0.1,277.1 "/>
<polygon class="st0" points="283.5,611.7 -0.1,611.7 -0.1,328.1 "/>
<path class="st3" d="M372.4,364.6"/>
<line class="st4" x1="340.5" y1="613.8" x2="338.3" y2="611.7"/>
<line class="st4" x1="794.1" y1="582.2" x2="791.9" y2="580.1"/>
<line class="st4" x1="285.8" y1="614" x2="283.5" y2="611.7"/>
<polygon class="st5" points="327.8,611.2 327.8,243.1 481.7,243.1 481.7,611.6 "/>
<path class="st6" d="M288.8,90.1v17.5c1.6,2.7,2.6,7,2.6,11.7c0,4.7-1,8.9-2.5,11.6l14.2,65h-37l14.2-65c-1.5-2.7-2.5-6.9-2.5-11.6
	c0-4.8,1-9,2.6-11.7V86.5l-34.1-14.6L404.8,4l158.5,67.9l-158.5,67.9L288.8,90.1z"/>
<circle class="st5" cx="403.3" cy="135.3" r="75.9"/>
</svg>
